<svg width="49" height="49" viewBox="0 0 49 49" fill="none" xmlns="http://www.w3.org/2000/svg">
<path d="M38.2113 0.125977L47.9483 10.276V48.874H11.5745V49H48.0725V10.4037L38.2113 0.125977Z" fill="#909090"/>
<path d="M38.0905 0H11.4503V48.874H47.9483V10.2778L38.0905 0Z" fill="#F4F4F4"/>
<path d="M11.1825 2.625H0V14.5722H35.175V2.625H11.1825Z" fill="#7A7B7C"/>
<path d="M35.3622 14.3692H0.227478V2.41321H35.3622V14.3692Z" fill="#DD2025"/>
<path d="M11.8773 4.43446H9.59003V12.8345H11.389V10.0012L11.7863 10.024C12.1723 10.0173 12.5546 9.94817 12.9185 9.81921C13.2376 9.70948 13.531 9.53624 13.7813 9.30996C14.0359 9.09439 14.2366 8.82233 14.3675 8.51546C14.543 8.00533 14.6057 7.46318 14.5513 6.92646C14.5403 6.54305 14.4731 6.16332 14.3518 5.79946C14.2413 5.53679 14.0774 5.30001 13.8704 5.10417C13.6634 4.90833 13.4179 4.75773 13.1495 4.66196C12.9175 4.57795 12.6778 4.51699 12.4338 4.47996C12.249 4.45145 12.0625 4.43624 11.8755 4.43446M11.5448 8.44896H11.389V5.85896H11.7268C11.8758 5.84821 12.0254 5.87109 12.1645 5.92592C12.3035 5.98074 12.4284 6.06611 12.53 6.17571C12.7406 6.45748 12.8531 6.80046 12.8503 7.15221C12.8503 7.58271 12.8503 7.97296 12.4618 8.24771C12.1819 8.40164 11.8633 8.4727 11.5448 8.44896ZM17.969 4.41171C17.7748 4.41171 17.5858 4.42571 17.4528 4.43096L17.0363 4.44146H15.6713V12.8415H17.2778C17.8917 12.8583 18.503 12.7542 19.0768 12.5352C19.5386 12.352 19.9476 12.0567 20.2668 11.676C20.5772 11.2918 20.7999 10.8444 20.9195 10.3652C21.057 9.82248 21.1241 9.26431 21.119 8.70446C21.153 8.04323 21.1018 7.38039 20.9668 6.73221C20.8386 6.25509 20.5987 5.81537 20.2668 5.44946C20.0064 5.15399 19.6876 4.91565 19.3305 4.74946C19.0239 4.60756 18.7013 4.50298 18.3698 4.43796C18.2379 4.41618 18.1044 4.40622 17.9708 4.40821M17.6523 11.298H17.4773V5.93596H17.5C17.8608 5.89445 18.2258 5.95954 18.55 6.12321C18.7874 6.31278 18.9809 6.55161 19.117 6.82321C19.264 7.10904 19.3486 7.42277 19.3655 7.74371C19.3813 8.12871 19.3655 8.44371 19.3655 8.70446C19.3727 9.00482 19.3533 9.30523 19.3078 9.60221C19.2538 9.90711 19.1541 10.2021 19.012 10.4772C18.8512 10.733 18.6339 10.9485 18.3768 11.1072C18.1609 11.2469 17.9052 11.312 17.6488 11.2927M26.5388 4.44146H22.2863V12.8415H24.0853V9.50946H26.3603V7.94846H24.0853V6.00246H26.5353V4.44146" fill="#464648"/>
<path d="M34.153 31.9463C34.153 31.9463 39.732 30.9348 39.732 32.8405C39.732 34.7463 36.2758 33.971 34.153 31.9463ZM30.0283 32.0915C29.1419 32.2874 28.2781 32.5741 27.4505 32.9473L28.1505 31.3723C28.8505 29.7973 29.5768 27.65 29.5768 27.65C30.4121 29.0559 31.3839 30.3759 32.4783 31.591C31.653 31.7141 30.8351 31.8823 30.0283 32.095V32.0915ZM27.8198 20.7165C27.8198 19.0558 28.357 18.6025 28.7753 18.6025C29.1935 18.6025 29.6643 18.8038 29.68 20.2458C29.5438 21.6957 29.2401 23.1251 28.7753 24.5053C28.1385 23.3465 27.8089 22.044 27.818 20.7218L27.8198 20.7165ZM19.684 39.1195C17.9725 38.0958 23.2733 34.944 24.234 34.8425C24.2288 34.8443 21.476 40.1905 19.684 39.1195ZM41.3613 33.0663C41.3438 32.8913 41.1863 30.954 37.7388 31.0363C36.3018 31.0131 34.8655 31.1144 33.446 31.339C32.071 29.9537 30.8869 28.3912 29.925 26.6928C30.531 24.9418 30.8977 23.1169 31.0153 21.2678C30.9645 19.1678 30.4623 17.9638 28.8523 17.9813C27.2423 17.9988 27.0078 19.4075 27.2195 21.504C27.4269 22.9129 27.8182 24.2884 28.3833 25.5955C28.3833 25.5955 27.6395 27.9108 26.656 30.2138C25.6725 32.5168 25.0005 33.7243 25.0005 33.7243C23.2903 34.281 21.6803 35.1082 20.2318 36.1743C18.7898 37.5165 18.2035 38.5473 18.963 39.578C19.6175 40.467 21.9083 40.6683 23.9558 37.9855C25.0437 36.5999 26.0376 35.143 26.9308 33.6245C26.9308 33.6245 30.0528 32.7688 31.024 32.5343C31.9953 32.2998 33.1695 32.1143 33.1695 32.1143C33.1695 32.1143 36.0203 34.9825 38.7695 34.881C41.5188 34.7795 41.3858 33.2378 41.3683 33.0698" fill="#DD2025"/>
<path d="M37.9557 0.134766V10.4125H47.8135L37.9557 0.134766Z" fill="#909090"/>
<path d="M38.0905 0V10.2778H47.9483L38.0905 0Z" fill="#F4F4F4"/>
<path d="M11.7425 4.29969H9.45526V12.6997H11.2613V9.86819L11.6603 9.89094C12.0463 9.8843 12.4286 9.81515 12.7925 9.68619C13.1115 9.57642 13.405 9.40319 13.6553 9.17694C13.908 8.9608 14.1069 8.68878 14.2363 8.38244C14.4118 7.87231 14.4745 7.33016 14.42 6.79344C14.4091 6.41003 14.3419 6.03031 14.2205 5.66644C14.11 5.40378 13.9461 5.16699 13.7391 4.97115C13.5321 4.77532 13.2866 4.62472 13.0183 4.52894C12.7852 4.44412 12.5442 4.38257 12.299 4.34519C12.1143 4.31668 11.9277 4.30148 11.7408 4.29969M11.41 8.31419H11.2543V5.72419H11.5938C11.7428 5.71344 11.8924 5.73633 12.0314 5.79115C12.1705 5.84598 12.2954 5.93134 12.397 6.04094C12.6076 6.32272 12.7201 6.6657 12.7173 7.01744C12.7173 7.44794 12.7173 7.83819 12.3288 8.11294C12.0489 8.26688 11.7303 8.33619 11.4118 8.31244M17.8343 4.27694C17.64 4.27694 17.451 4.29094 17.318 4.29619L16.9068 4.30669H15.5418V12.7067H17.1483C17.7622 12.7235 18.3735 12.6195 18.9473 12.4004C19.4091 12.2173 19.8181 11.922 20.1373 11.5412C20.4476 11.157 20.6704 10.7097 20.79 10.2304C20.9275 9.68771 20.9945 9.12954 20.9895 8.56969C21.0235 7.90847 20.9723 7.24562 20.8373 6.59744C20.7091 6.12033 20.4692 5.6806 20.1373 5.31469C19.8768 5.01923 19.5581 4.78089 19.201 4.61469C18.8944 4.4728 18.5718 4.36821 18.2403 4.30319C18.1084 4.28141 17.9749 4.27145 17.8413 4.27344M17.5228 11.1632H17.3478V5.80119H17.3705C17.7313 5.75968 18.0963 5.82478 18.4205 5.98844C18.6579 6.17801 18.8514 6.41684 18.9875 6.68844C19.1344 6.97428 19.2191 7.288 19.236 7.60894C19.2518 7.99394 19.236 8.30894 19.236 8.56969C19.2431 8.87006 19.2238 9.17046 19.1783 9.46744C19.1243 9.77234 19.0246 10.0673 18.8825 10.3424C18.7217 10.5982 18.5044 10.8137 18.2473 10.9724C18.0314 11.1121 17.7757 11.1772 17.5193 11.1579M26.404 4.30669H22.1515V12.7067H23.9505V9.37469H26.2255V7.81369H23.9505V5.86769H26.4005V4.30669" fill="white"/>
</svg>
