<svg width="20" height="20" viewBox="0 0 20 20" fill="none" xmlns="http://www.w3.org/2000/svg">
<path d="M19.4009 3.49167C20.1997 2.6929 20.1997 1.39784 19.4009 0.599075C18.6022 -0.199692 17.3071 -0.199692 16.5083 0.599075L11.4463 5.66111C10.6475 6.45988 9.35247 6.45988 8.5537 5.66111L3.49167 0.599075C2.6929 -0.199692 1.39784 -0.199692 0.599076 0.599075C-0.199692 1.39784 -0.199692 2.6929 0.599076 3.49167L5.66111 8.5537C6.45988 9.35247 6.45988 10.6475 5.66111 11.4463L0.599075 16.5083C-0.199692 17.3071 -0.199692 18.6022 0.599075 19.4009C1.39784 20.1997 2.6929 20.1997 3.49167 19.4009L8.5537 14.3389C9.35247 13.5401 10.6475 13.5401 11.4463 14.3389L16.5083 19.4009C17.3071 20.1997 18.6022 20.1997 19.4009 19.4009C20.1997 18.6022 20.1997 17.3071 19.4009 16.5083L14.3389 11.4463C13.5401 10.6475 13.5401 9.35247 14.3389 8.5537L19.4009 3.49167Z" fill="black"/>
</svg>
