<svg width="25" height="18" viewBox="0 0 25 18" fill="none" xmlns="http://www.w3.org/2000/svg">
<path d="M12.25 0C6.68182 0 1.92659 3.62833 0 8.75C1.92659 13.8717 6.68182 17.5 12.25 17.5C17.8182 17.5 22.5734 13.8717 24.5 8.75C22.5734 3.62833 17.8182 0 12.25 0ZM12.25 14.5833C9.17636 14.5833 6.68182 11.97 6.68182 8.75C6.68182 5.53 9.17636 2.91667 12.25 2.91667C15.3236 2.91667 17.8182 5.53 17.8182 8.75C17.8182 11.97 15.3236 14.5833 12.25 14.5833ZM12.25 5.25C10.4014 5.25 8.90909 6.81333 8.90909 8.75C8.90909 10.6867 10.4014 12.25 12.25 12.25C14.0986 12.25 15.5909 10.6867 15.5909 8.75C15.5909 6.81333 14.0986 5.25 12.25 5.25Z" fill="white"/>
</svg>
