<svg width="18" height="21" viewBox="0 0 18 21" fill="none" xmlns="http://www.w3.org/2000/svg">
<path fill-rule="evenodd" clip-rule="evenodd" d="M4.5 5.93511C6.3658 4.7975 7.69246 2.86114 8.02089 0.599321C8.062 0.316177 8.36656 0.142596 8.61331 0.287431C11.2685 1.84595 13.05 4.72304 13.05 8.01452C13.05 8.77181 12.9557 9.50717 12.7781 10.2096C12.6981 10.5264 12.9887 10.8177 13.2805 10.6705C14.2394 10.1868 15.0009 9.37124 15.4127 8.37551C15.5324 8.08596 15.9159 7.98161 16.1174 8.22159C17.2926 9.62166 18 11.4247 18 13.3923C18 16.7807 15.9022 19.6812 12.9294 20.8759C12.7181 20.9608 12.4819 20.9608 12.2706 20.8759C9.29781 19.6812 7.2 16.7807 7.2 13.3923V13.3923C7.2 13.3022 7.08849 13.2589 7.03121 13.3284C6.01184 14.5656 5.4 16.1485 5.4 17.8738C5.4 18.4806 5.47568 19.0697 5.61814 19.6324C5.69667 19.9426 5.42311 20.2419 5.12098 20.1366C2.13879 19.0966 0 16.2691 0 12.9442C0 10.0869 1.57943 7.59697 3.91625 6.29311L4.5 5.93511Z" fill="#93A0AD"/>
</svg>
