<svg width="23" height="24" viewBox="0 0 23 24" fill="none" xmlns="http://www.w3.org/2000/svg">
<path d="M16.6688 23.4127C17.5956 23.4128 18.5029 23.1464 19.2825 22.6452C20.062 22.1439 20.681 21.4291 21.0655 20.5858C21.45 19.7425 21.5839 18.8065 21.4512 17.8892C21.3184 16.972 20.9246 16.1123 20.3168 15.4126C19.709 14.713 18.9128 14.2029 18.0231 13.9433C17.1334 13.6836 16.1878 13.6854 15.2991 13.9482C14.4104 14.2111 13.616 14.7241 13.0107 15.4259C12.4054 16.1278 12.0148 16.9889 11.8854 17.9066C9.03603 16.4316 6.72767 14.0911 5.29211 11.2216C5.97024 11.1581 6.62725 10.9518 7.2199 10.6161C7.81256 10.2805 8.32744 9.82313 8.73067 9.27421C9.43391 8.38885 9.7898 7.27723 9.73151 6.14806C9.67322 5.01889 9.20477 3.94982 8.4141 3.14157C8.22878 2.94488 8.02559 2.76581 7.80717 2.60668C7.09388 2.04904 6.23824 1.70305 5.33783 1.60816C4.43742 1.51326 3.52846 1.67328 2.71459 2.06998C1.90072 2.46667 1.2147 3.08407 0.734733 3.85178C0.254769 4.61949 0.000182136 5.50662 1.4354e-07 6.41202C-4.08631e-05 6.57757 0.00870429 6.743 0.0261987 6.90761C-0.0266837 7.39458 0.00358455 7.88699 0.11571 8.36381C0.283818 9.06899 0.508689 9.76107 0.742292 10.4488C1.19231 11.8785 1.84205 13.2375 2.67225 14.4855C3.48399 15.6352 4.39261 16.7133 5.38817 17.708C6.60846 18.9799 7.97777 20.1 9.46641 21.0439C11.0318 22.0023 12.7565 22.5722 14.5031 23.0939C14.8877 23.2062 15.2827 23.2793 15.682 23.3123C16.0067 23.3791 16.3373 23.4127 16.6688 23.4127Z" fill="#E5B532"/>
<path d="M13.1954 5.76123C14.2331 5.9377 16.4953 6.94437 17.2424 9.55927" stroke="#E5B532" stroke-width="1.7" stroke-linecap="round"/>
<path d="M13.5314 1.58154C15.7935 1.71651 20.5544 3.43711 21.5008 9.23978" stroke="#E5B532" stroke-width="1.7" stroke-linecap="round"/>
</svg>
