<svg width="82" height="82" viewBox="0 0 82 82" fill="none" xmlns="http://www.w3.org/2000/svg">
<path d="M2.55637 81.9999C2.35317 81.8885 2.15653 81.777 1.95333 81.6656C0.8128 81.0363 0.163879 80.0924 0.163879 78.7684C0.163879 62.0931 0.163879 45.4178 0.163879 28.7425C0.163879 27.8117 0.616158 27.3136 1.40273 27.3332C2.16308 27.3529 2.55637 27.8576 2.55637 28.8277C2.55637 44.782 2.55637 60.7428 2.55637 76.6971C2.55637 77.0183 2.55637 77.3329 2.55637 77.7655C2.76612 77.6148 2.91032 77.5295 3.02831 77.4116C6.85629 73.5901 10.6777 69.7622 14.5057 65.9473C14.8269 65.6261 14.9449 65.3442 14.7941 64.8985C14.6892 64.5839 14.7089 64.2168 14.7089 63.8694C14.7089 61.7916 14.7089 59.7203 14.7089 57.5179C13.6405 57.5179 12.6179 57.5179 11.5888 57.5179C11.3201 57.5179 11.0579 57.531 10.7891 57.5179C9.95013 57.4654 9.41919 56.9607 9.43886 56.2462C9.45852 55.5645 9.9698 55.0795 10.7826 55.0598C12.0542 55.0336 13.3324 55.0533 14.6564 55.0533V49.8685C13.9354 49.8685 13.2013 49.875 12.4672 49.8685C11.5495 49.8554 11.0251 49.3965 11.0317 48.6296C11.0317 47.8889 11.5298 47.4629 12.4213 47.4432C13.1357 47.4301 13.8568 47.4432 14.6368 47.4432V42.206C13.6798 42.206 12.6835 42.206 11.6806 42.206C11.4118 42.206 11.1497 42.206 10.8809 42.206C9.97635 42.1928 9.41919 41.7275 9.43886 40.9802C9.45197 40.2658 9.98946 39.8135 10.8547 39.8069C12.1001 39.8004 13.352 39.8069 14.6564 39.8069V34.5697C13.9551 34.5697 13.2472 34.5762 12.5393 34.5697C11.5298 34.5566 11.012 34.1305 11.0382 33.3308C11.0579 32.577 11.5823 32.151 12.5261 32.1444C13.2144 32.1444 13.9092 32.1444 14.6564 32.1444V26.9596C13.6339 26.9596 12.631 26.9596 11.6216 26.9596C11.3266 26.9596 11.0317 26.9727 10.7433 26.953C9.94358 26.8875 9.43886 26.4024 9.44541 25.7142C9.45197 25.0259 9.96979 24.5147 10.7629 24.5016C12.0411 24.4688 13.3193 24.495 14.6499 24.495V19.3299C13.9944 19.3299 13.3193 19.3299 12.6376 19.3299C11.5757 19.3299 11.0317 18.9038 11.0317 18.091C11.0317 17.2848 11.5692 16.8718 12.6507 16.8587C13.3127 16.8522 13.9682 16.8587 14.6696 16.8587V11.6739C13.3324 11.6739 12.0149 11.6936 10.6908 11.6673C9.95668 11.6542 9.45852 11.143 9.44541 10.4744C9.4323 9.81891 9.92391 9.31419 10.658 9.26175C11.0054 9.23553 11.3528 9.24864 11.6937 9.24864C12.6704 9.24864 13.647 9.24864 14.7023 9.24864C14.7023 7.24944 14.722 5.33546 14.6892 3.42802C14.6827 2.85776 14.2697 2.58246 13.7191 2.5759C10.3369 2.56935 6.95461 2.56279 3.57235 2.5759C2.812 2.5759 2.55637 2.94952 2.55637 3.8803C2.55637 9.93034 2.55637 15.9738 2.55637 22.0239C2.55637 22.3188 2.56292 22.6072 2.55637 22.9022C2.52359 23.6298 2.03854 24.1345 1.37651 24.1411C0.707924 24.1476 0.203208 23.6494 0.170434 22.9284C0.157325 22.6072 0.170434 22.2861 0.170434 21.9714C0.170434 15.8689 0.170434 9.77303 0.170434 3.67055C0.163879 1.49437 1.48794 0.163752 3.62479 0.163752C6.82351 0.163752 10.0222 0.262074 13.2144 0.130979C15.4955 0.0326572 17.1604 1.46159 17.1538 4.10316C17.0883 23.8133 17.121 43.53 17.121 63.2402C17.121 63.5089 17.1145 63.7711 17.121 64.0398C17.1473 64.6822 17.4881 65.01 18.1239 65.0427C18.3927 65.0558 18.6548 65.0427 18.9236 65.0427C38.5551 65.0427 58.1866 65.0624 77.8246 65.01C79.8107 65.01 81.2265 65.5802 82 67.4483V79.5943C81.515 80.7086 80.7153 81.5083 79.601 81.9933H2.55637V81.9999ZM4.26716 79.6008C4.75221 79.6008 5.0144 79.6008 5.27659 79.6008C29.5423 79.6008 53.808 79.6008 78.0737 79.6008C78.2572 79.6008 78.4473 79.6074 78.6309 79.6008C79.2273 79.5615 79.5879 79.2403 79.5944 78.6439C79.6075 75.2354 79.6206 71.8269 79.5682 68.4184C79.5682 68.0972 79.0831 67.5139 78.8078 67.5073C76.6317 67.4287 74.4555 67.468 72.1941 67.468C72.1941 67.8547 72.1941 68.1693 72.1941 68.4774C72.1941 69.4869 72.2072 70.5028 72.1744 71.5123C72.1482 72.135 71.7943 72.6659 71.1781 72.6725C70.752 72.6725 70.2539 72.3775 69.9196 72.0629C69.723 71.8793 69.7295 71.4205 69.723 71.0797C69.7033 69.8933 69.7164 68.7068 69.7164 67.5008H64.6365C64.6037 67.5925 64.5709 67.645 64.5709 67.6908C64.5644 68.3267 64.5644 68.969 64.5513 69.6048C64.5381 70.5946 64.0924 71.1321 63.3058 71.1255C62.5193 71.1255 62.0998 70.6012 62.0801 69.5852C62.067 68.8969 62.0801 68.2152 62.0801 67.5073H56.8953C56.8953 68.8379 56.915 70.1161 56.8953 71.3943C56.8822 72.3382 56.1022 72.9478 55.309 72.6594C54.7126 72.4365 54.47 71.9777 54.4766 71.3484C54.4897 70.0768 54.4766 68.8052 54.4766 67.5204H49.2328C49.2328 68.307 49.2393 69.028 49.2328 69.7425C49.2197 70.6208 48.7871 71.119 48.0464 71.1255C47.2991 71.1255 46.8469 70.6274 46.8403 69.7622C46.8337 69.0018 46.8403 68.2414 46.8403 67.4877H41.6096C41.6096 68.7134 41.6227 69.9064 41.603 71.0928C41.603 71.4271 41.6162 71.8924 41.4195 72.076C41.0852 72.3775 40.574 72.679 40.1544 72.6528C39.5121 72.6135 39.1778 72.0694 39.1778 71.4008C39.1778 70.103 39.1778 68.8117 39.1778 67.4942H33.9995C33.9995 68.2742 34.0192 69.0084 33.9995 69.749C33.9733 70.5946 33.5407 71.0862 32.8524 71.1255C32.079 71.1714 31.5612 70.6602 31.5284 69.7687C31.5022 69.0084 31.5284 68.2546 31.5284 67.5073H26.3632C26.3632 68.8379 26.3829 70.1161 26.3567 71.3877C26.3436 72.1809 25.8389 72.6987 25.1506 72.7118C24.4624 72.7249 23.9773 72.2267 23.9118 71.4205C23.8855 71.1059 23.8987 70.7847 23.8987 70.4635C23.8987 69.4869 23.8987 68.5102 23.8987 67.4483C23.0203 67.4483 22.2272 67.468 21.4341 67.4483C19.9199 67.4024 18.4123 67.3238 16.8982 67.2976C16.6819 67.2976 16.4131 67.4745 16.2427 67.645C14.84 69.028 13.4504 70.4242 12.0542 71.8203C9.51096 74.357 6.97427 76.9003 4.26716 79.6008Z" fill="#E5B532"/>
<path d="M66.9699 34.1307C66.9699 36.7395 66.9699 39.3483 66.9699 41.9636C66.9699 43.3925 66.3734 44.5003 65.1542 45.2148C60.6052 47.8629 56.0431 50.4913 51.481 53.1132C50.2553 53.8146 48.9837 53.8081 47.7579 53.1001C43.2155 50.4913 38.6796 47.8694 34.1502 45.241C32.8983 44.5134 32.2887 43.3925 32.2887 41.9374C32.2887 36.746 32.2887 31.5481 32.2887 26.3567C32.2887 24.9343 32.8852 23.82 34.1109 23.1121C38.6599 20.464 43.2286 17.8355 47.7907 15.2136C49.023 14.5057 50.2946 14.5254 51.5138 15.2268C56.0562 17.8355 60.5921 20.4509 65.1215 23.0859C66.3734 23.8135 66.983 24.9343 66.9765 26.3961C66.9634 28.9786 66.9765 31.5612 66.9765 34.1503L66.9699 34.1307ZM63.3255 24.8426C59.0255 22.3583 54.8239 19.9593 50.6551 17.5144C49.9144 17.0817 49.3245 17.108 48.5969 17.534C44.6313 19.861 40.6395 22.142 36.6607 24.4427C36.451 24.5673 36.2478 24.7049 35.9856 24.8688C40.4559 27.4514 44.8476 29.9946 49.259 32.5116C49.4687 32.6296 49.8686 32.5903 50.0914 32.4723C51.304 31.8103 52.497 31.1089 53.69 30.4076C54.1816 30.1192 54.6797 30.0077 55.1845 30.3551C55.9645 30.8861 55.9055 31.9152 55.014 32.4527C53.8342 33.1737 52.6347 33.8685 51.422 34.524C50.9566 34.773 50.819 35.068 50.819 35.5858C50.8387 40.3511 50.8321 45.1164 50.8321 49.8818C50.8321 50.1046 50.8518 50.3275 50.8714 50.629C51.1664 50.4717 51.3761 50.3668 51.5793 50.2488C55.5384 47.9612 59.4909 45.6605 63.4697 43.4057C64.2628 42.9534 64.5905 42.3962 64.584 41.4851C64.5578 36.9033 64.5709 32.3281 64.5709 27.7463C64.5709 27.5235 64.5512 27.3006 64.5315 26.9729C63.0567 27.825 61.6868 28.6247 60.3037 29.4047C59.4647 29.8832 58.7568 29.739 58.3832 29.0507C58.0227 28.3887 58.2652 27.7857 59.1042 27.2941C60.4807 26.4878 61.8638 25.6947 63.332 24.836L63.3255 24.8426ZM34.7467 26.9663C34.7271 27.2154 34.7074 27.3137 34.7074 27.4186C34.7074 32.1839 34.7074 36.9558 34.7008 41.7211C34.7008 42.4749 35.022 42.9468 35.671 43.3139C39.7283 45.6408 43.7792 47.9874 47.83 50.3209C48.0004 50.4192 48.1905 50.4848 48.4331 50.5897C48.4331 45.418 48.4396 40.3315 48.4134 35.245C48.4134 35.009 48.1315 34.7009 47.9021 34.5633C45.8374 33.3507 43.7595 32.1642 41.6882 30.9713C39.4137 29.6603 37.1392 28.3428 34.7533 26.9598L34.7467 26.9663Z" fill="#E5B532"/>
<path d="M27.8446 12.3754C27.8446 13.4045 27.8577 14.309 27.8446 15.2136C27.8249 16.0592 27.3268 16.6098 26.6254 16.5967C25.9241 16.5835 25.439 16.0198 25.4259 15.1808C25.4128 14.1714 25.4062 13.1554 25.4259 12.146C25.4521 10.8744 26.3042 9.98291 27.5759 9.94358C28.6115 9.9108 29.6537 9.91736 30.6894 9.94358C31.489 9.96324 32.0003 10.4483 32.02 11.1365C32.0396 11.851 31.5743 12.3426 30.7549 12.3754C29.8307 12.4147 28.8999 12.3819 27.8446 12.3819V12.3754Z" fill="#E5B532"/>
<path d="M71.4338 12.3819C70.4899 12.3819 69.6705 12.395 68.8512 12.3819C67.8418 12.3622 67.3043 11.9296 67.3043 11.1627C67.3043 10.3827 67.8549 9.93694 68.8315 9.92383C69.7361 9.91727 70.6406 9.91072 71.5452 9.92383C72.9676 9.95005 73.8262 10.8153 73.8394 12.2245C73.8525 13.234 73.8525 14.25 73.8394 15.2594C73.8262 16.0394 73.3215 16.5835 72.6464 16.59C71.9712 16.6031 71.46 16.0656 71.4403 15.2856C71.4206 14.3548 71.4403 13.4241 71.4403 12.3819H71.4338Z" fill="#E5B532"/>
<path d="M27.8446 55.9449C28.8868 55.9449 29.7848 55.9384 30.6894 55.9449C31.5022 55.9581 32.0003 56.4038 32.02 57.1051C32.0396 57.8458 31.5284 58.3243 30.6763 58.3309C29.6406 58.3374 28.6049 58.344 27.5627 58.3309C26.3304 58.3178 25.4587 57.4656 25.4259 56.2268C25.3997 55.2174 25.4062 54.2079 25.4259 53.1919C25.439 52.366 25.9568 51.8023 26.6582 51.8089C27.3333 51.8154 27.8184 52.3464 27.838 53.1461C27.8577 54.0441 27.838 54.9421 27.838 55.9318L27.8446 55.9449Z" fill="#E5B532"/>
<path d="M71.4272 55.945C71.4272 54.9945 71.4206 54.1227 71.4272 53.251C71.4403 52.3857 71.886 51.8417 72.5939 51.822C73.3215 51.8024 73.8262 52.3792 73.8393 53.2641C73.8459 54.2211 73.8525 55.1781 73.8393 56.1351C73.8197 57.4722 72.9676 58.3243 71.6501 58.3375C70.6668 58.344 69.6836 58.344 68.7004 58.3375C67.8286 58.3375 67.3108 57.8917 67.3043 57.1641C67.2911 56.4104 67.8286 55.9515 68.7463 55.945C69.6181 55.945 70.4833 55.945 71.4403 55.945H71.4272Z" fill="#E5B532"/>
</svg>
