<svg width="30" height="28" viewBox="0 0 30 28" fill="none" xmlns="http://www.w3.org/2000/svg">
<g clip-path="url(#clip0_2010_72)">
<path d="M29.0774 28.0002H0.879385C0.461317 27.8455 0.165786 27.5697 0 27.1795V26.6345C0.266699 26.0156 0.756848 25.7801 1.47045 25.8071C2.35704 25.8407 3.24363 25.8138 4.13023 25.8138H4.44738V25.4169C4.44738 17.3774 4.44738 9.33132 4.43297 1.29192C4.43297 0.538431 5.01682 0.0338663 5.76646 0.0405938C11.9005 0.0607764 18.0346 0.0607764 24.1615 0.0405938C24.9688 0.0405938 25.5166 0.565341 25.5166 1.29864C25.495 9.3515 25.5022 17.4044 25.5022 25.4572C25.5022 25.5716 25.5022 25.686 25.5022 25.8205C25.6463 25.8205 25.7472 25.8205 25.8554 25.8205C26.8284 25.8205 27.8087 25.8205 28.7818 25.8205C29.3513 25.8205 29.827 26.1771 29.9351 26.6884C30.0432 27.1862 29.7766 27.6773 29.272 27.906C29.2071 27.9397 29.135 27.9733 29.0702 28.007L29.0774 28.0002ZM23.1523 2.25395H6.81163V25.8071H23.1523V16.0118H20.8313C20.8313 16.3818 20.8313 16.7383 20.8313 17.0949C20.8313 17.7138 20.3196 18.178 19.6636 18.178C19.0077 18.178 18.4959 17.7071 18.4959 17.0949C18.4959 16.3683 18.4959 15.6417 18.4959 14.9084C18.4959 14.2761 18.9933 13.8119 19.678 13.8119C20.7304 13.8119 21.7828 13.8119 22.8352 13.8119C22.9361 13.8119 23.0442 13.8119 23.1595 13.8119V2.25395H23.1523Z" fill="#E5B532"/>
<path d="M14.9857 4.41981C16.5282 4.41981 18.0635 4.41981 19.606 4.41981C20.3413 4.41981 20.8242 4.87729 20.8242 5.56349C20.8242 6.983 20.8242 8.40251 20.8242 9.82202C20.8242 10.515 20.3413 10.9657 19.5988 10.9657C16.521 10.9657 13.4359 10.9657 10.3581 10.9657C9.60122 10.9657 9.12549 10.515 9.12549 9.80184C9.12549 8.38906 9.12549 6.983 9.12549 5.57022C9.12549 4.86383 9.60122 4.41309 10.3653 4.41309C11.9078 4.41309 13.4431 4.41309 14.9857 4.41309V4.41981ZM11.4825 8.7658H18.4672V6.61299H11.4825V8.7658Z" fill="#E5B532"/>
<path d="M14.9639 23.6337C13.4141 23.6337 11.8644 23.6337 10.3147 23.6337C9.71639 23.6337 9.21903 23.2502 9.13974 22.7255C9.04604 22.1604 9.39923 21.6491 9.99029 21.4876C10.0984 21.4607 10.221 21.4473 10.3363 21.4473C13.4358 21.4473 16.5352 21.4473 19.6419 21.4473C20.3339 21.4473 20.8384 21.9115 20.8384 22.5304C20.8384 23.1695 20.3339 23.627 19.6275 23.627C18.0778 23.627 16.528 23.627 14.9783 23.627L14.9639 23.6337Z" fill="#E5B532"/>
</g>
<defs>
<clipPath id="clip0_2010_72">
<rect width="30" height="28" fill="white"/>
</clipPath>
</defs>
</svg>
