<svg width="30" height="28" viewBox="0 0 30 28" fill="none" xmlns="http://www.w3.org/2000/svg">
<g clip-path="url(#clip0_2010_80)">
<path d="M26.7797 27.9998H3.2132C2.67285 27.7778 2.33423 27.4414 2.33423 26.8494C2.33423 18.2987 2.33423 9.74798 2.33423 1.19728C2.33423 0.504347 2.81694 0.046875 3.55182 0.046875C11.1888 0.046875 18.8329 0.046875 26.4699 0.046875C26.5923 0.046875 26.722 0.0603301 26.8445 0.0939677C27.4281 0.255429 27.6874 0.659081 27.6874 1.3722C27.6874 9.79507 27.6874 18.2179 27.6946 26.6408C27.6946 27.3001 27.4569 27.7643 26.7797 27.9998ZM13.8113 2.25351H4.69736V12.9234H13.8113V2.25351ZM13.8113 15.1367H4.69736V25.8066H13.8113V15.1367ZM16.2104 2.24005V12.9167H25.3027V2.24005H16.2104ZM25.3099 15.1367H16.2104V25.7999H25.3099V15.1367Z" fill="#E5B532"/>
</g>
<defs>
<clipPath id="clip0_2010_80">
<rect width="29.9858" height="28" fill="white"/>
</clipPath>
</defs>
</svg>
