<svg width="83" height="83" viewBox="0 0 83 83" fill="none" xmlns="http://www.w3.org/2000/svg">
<path d="M0 68.95C0.54 67.17 1.08 65.39 1.61 63.6C1.76 63.09 1.9 62.57 2.06 62.06C2.34 61.19 2.95 60.82 3.69 61.06C4.35 61.27 4.64 61.94 4.41 62.78C4.05 64.1 3.67 65.41 3.3 66.72C3.24 66.94 3.18 67.17 3.09 67.52C3.4 67.37 3.61 67.28 3.81 67.17C8.17 64.75 12.52 62.31 16.88 59.91C17.39 59.63 17.58 59.32 17.57 58.73C17.55 50.6 17.57 42.46 17.54 34.33C17.54 33.44 17.87 32.85 18.62 32.43C21.47 30.84 24.33 29.24 27.18 27.64C27.72 27.34 28.31 27.2 28.73 27.69C29 28.01 29.18 28.57 29.1 28.97C29.04 29.31 28.61 29.66 28.27 29.86C26.11 31.11 23.93 32.31 21.76 33.53C21.51 33.67 21.26 33.82 20.9 34.03C22.38 34.86 23.75 35.63 25.11 36.39C30.28 39.27 35.46 42.15 40.63 45.04C41.04 45.27 41.36 45.34 41.81 45.09C48.29 41.46 54.77 37.85 61.26 34.24C61.33 34.2 61.39 34.15 61.52 34.07C61.36 33.95 61.24 33.82 61.09 33.74C54.65 30.15 48.21 26.57 41.78 22.97C41.36 22.73 41.07 22.8 40.69 23.01C38.22 24.4 35.73 25.78 33.24 27.15C32.9 27.34 32.43 27.59 32.13 27.48C31.72 27.33 31.27 26.93 31.1 26.53C30.84 25.94 31.22 25.46 31.77 25.15C33.29 24.3 34.81 23.45 36.33 22.6C37.38 22.01 38.45 21.45 39.48 20.83C39.72 20.68 39.96 20.32 39.97 20.05C40 14.9 39.99 9.74004 39.99 4.59004C39.99 4.51004 39.97 4.43004 39.94 4.26004C39.75 4.41004 39.59 4.52004 39.45 4.66004C38.46 5.64004 37.48 6.64004 36.48 7.62004C35.83 8.26004 35.09 8.31004 34.57 7.77004C34.02 7.20004 34.07 6.55004 34.75 5.86004C36.39 4.20004 38.04 2.55004 39.7 0.910036C40.69 -0.0699642 41.77 -0.0999642 42.75 0.860036C44.44 2.51004 46.1 4.19004 47.76 5.87004C48.43 6.55004 48.47 7.23004 47.92 7.78004C47.4 8.31004 46.66 8.25004 46.01 7.61004C44.9 6.50004 43.8 5.37004 42.56 4.12004C42.54 4.57004 42.51 4.83004 42.51 5.08004C42.51 9.97004 42.52 14.85 42.49 19.74C42.49 20.36 42.67 20.68 43.21 20.98C49.87 24.66 56.5 28.4 63.17 32.05C64.46 32.76 65.01 33.59 64.96 35.1C64.85 38.21 64.93 41.33 64.92 44.44C64.92 45.45 64.49 45.96 63.67 45.95C62.89 45.93 62.49 45.45 62.49 44.46C62.49 41.83 62.49 39.2 62.49 36.43C62.19 36.58 61.96 36.69 61.74 36.81C55.54 40.26 49.34 43.72 43.13 47.16C42.68 47.41 42.45 47.66 42.48 48.21C42.53 49.04 42.49 49.87 42.49 50.74C49.82 51.8 54.5 55.88 56.57 63.06C58.11 62.2 59.58 61.3 61.13 60.54C62.13 60.05 62.55 59.46 62.5 58.28C62.39 55.73 62.47 53.18 62.48 50.63C62.48 49.63 62.93 49.08 63.72 49.1C64.49 49.11 64.91 49.66 64.91 50.67C64.91 53.41 64.9 56.15 64.93 58.89C64.93 59.19 65.13 59.64 65.37 59.77C69.92 62.34 74.49 64.87 79.06 67.41C79.13 67.45 79.2 67.47 79.39 67.54C78.99 66.11 78.61 64.76 78.22 63.4C78.15 63.14 78.05 62.89 78 62.63C77.85 61.9 78.19 61.27 78.82 61.09C79.52 60.89 80.14 61.21 80.38 61.98C80.88 63.64 81.35 65.32 81.83 66.99C82.02 67.66 82.22 68.33 82.4 69C82.72 70.23 82.21 71.19 80.98 71.56C78.65 72.26 76.31 72.92 73.96 73.58C73.22 73.79 72.53 73.41 72.36 72.75C72.18 72.05 72.51 71.46 73.29 71.22C74.7 70.79 76.11 70.39 77.53 69.98C77.7 69.93 77.86 69.86 78.16 69.75C76.53 68.84 75.02 68 73.5 67.15C70.5 65.48 67.5 63.82 64.52 62.13C64.07 61.87 63.73 61.86 63.28 62.13C61.36 63.25 59.42 64.34 57.47 65.41C57.04 65.64 56.87 65.9 56.87 66.4C56.8 74.34 51.23 80.73 43.39 81.89C43.26 81.91 43.15 81.99 43.03 82.03H39.49C39.37 81.98 39.25 81.9 39.13 81.89C31.29 80.73 25.72 74.34 25.65 66.4C25.65 65.9 25.49 65.64 25.06 65.4C23.11 64.33 21.17 63.25 19.25 62.13C18.8 61.87 18.46 61.87 18.01 62.13C13.65 64.59 9.27 67.02 4.89 69.46C4.75 69.54 4.62 69.65 4.39 69.81C6.06 70.29 7.6 70.72 9.13 71.18C10 71.44 10.37 72.09 10.14 72.81C9.93 73.47 9.25 73.77 8.42 73.53C6.31 72.93 4.21 72.3 2.09 71.74C1.16 71.48 0.45 71.07 0 70.24C0 69.81 0 69.38 0 68.95ZM41.27 53.2C34.06 53.17 28.12 59.07 28.07 66.33C28.02 73.52 33.93 79.5 41.17 79.57C48.39 79.63 54.39 73.66 54.41 66.4C54.43 59.18 48.51 53.24 41.27 53.21V53.2ZM39.98 50.71C39.98 49.91 39.93 49.1 39.99 48.31C40.04 47.68 39.8 47.36 39.26 47.06C33.12 43.67 26.99 40.25 20.86 36.83C20.61 36.69 20.35 36.57 20.1 36.44C20.05 36.54 20.01 36.58 20.01 36.63C20.01 44.2 20.01 51.76 20.03 59.33C20.03 59.54 20.22 59.84 20.4 59.95C22.21 60.99 24.03 61.99 25.9 63.03C27.95 55.89 32.61 51.79 39.99 50.71H39.98Z" fill="#E5B532"/>
<path d="M41.84 66.3801C41.84 65.2301 41.83 64.0701 41.84 62.9201C41.86 61.6101 42.42 61.0501 43.7 61.0301C44.45 61.0201 45.2 61.0101 45.95 61.0301C48.03 61.0901 49.67 62.3301 49.96 64.3801C50.15 65.7401 50.13 67.1801 49.91 68.5301C49.61 70.4001 48.08 71.6001 46.18 71.7101C45.3 71.7601 44.41 71.7601 43.52 71.7201C42.42 71.6801 41.85 71.1001 41.83 69.9901C41.8 68.7801 41.83 67.5701 41.83 66.3701L41.84 66.3801ZM44.35 63.5301V69.2301C47.04 69.4901 47.7 68.9801 47.62 66.3801C47.55 63.7501 47.2 63.3701 44.56 63.4801C44.51 63.4801 44.46 63.5001 44.35 63.5301Z" fill="#E5B532"/>
<path d="M37.36 69.2799V67.6399C36.43 67.6399 35.53 67.6399 34.63 67.6399C34.31 67.6399 33.98 67.6599 33.66 67.6399C32.92 67.5699 32.41 67.0799 32.39 66.4299C32.37 65.7499 32.89 65.1899 33.67 65.1499C34.58 65.1099 35.49 65.1399 36.41 65.1299C36.7 65.1299 36.99 65.1299 37.34 65.1299V63.4799C36.12 63.4799 34.89 63.4799 33.67 63.4799C33.06 63.4799 32.56 63.1699 32.49 62.5999C32.44 62.1899 32.66 61.6999 32.89 61.3199C33 61.1299 33.41 61.0499 33.68 61.0499C35.05 61.0299 36.42 61.0199 37.78 61.0499C38.91 61.0799 39.77 61.7999 39.81 62.9299C39.89 65.2299 39.89 67.5399 39.81 69.8399C39.77 70.9699 38.93 71.6799 37.78 71.7199C36.41 71.7699 35.04 71.7599 33.68 71.7299C32.9 71.7099 32.37 71.1599 32.39 70.4799C32.41 69.7899 32.94 69.2999 33.74 69.2799C34.92 69.2599 36.09 69.2799 37.36 69.2799Z" fill="#E5B532"/>
</svg>
