<svg width="19" height="14" viewBox="0 0 19 14" fill="none" xmlns="http://www.w3.org/2000/svg">
<path d="M19 0.666667C19 0.266667 18.6833 0 18.2083 0H0.791667C0.316667 0 0 0.266667 0 0.666667V2C0 2.4 0.316667 2.66667 0.791667 2.66667H18.2083C18.6833 2.66667 19 2.4 19 2V0.666667Z" fill="#151515"/>
<path d="M19 6.00016C19 5.60016 18.6833 5.3335 18.2083 5.3335H0.791667C0.316667 5.3335 0 5.60016 0 6.00016V7.3335C0 7.7335 0.316667 8.00016 0.791667 8.00016H18.2083C18.6833 8.00016 19 7.7335 19 7.3335V6.00016Z" fill="#151515"/>
<path d="M19 11.3332C19 10.9332 18.6833 10.6665 18.2083 10.6665H0.791667C0.316667 10.6665 0 10.9332 0 11.3332V12.6665C0 13.0665 0.316667 13.3332 0.791667 13.3332H18.2083C18.6833 13.3332 19 13.0665 19 12.6665V11.3332Z" fill="#151515"/>
</svg>
