<svg width="6" height="10" viewBox="0 0 6 10" fill="none" xmlns="http://www.w3.org/2000/svg">
<path fill-rule="evenodd" clip-rule="evenodd" d="M0.169211 9.01763C-0.061443 8.77971 -0.0555541 8.39986 0.182365 8.16921L3.864 4.6L0.182365 1.03079C-0.0555541 0.800133 -0.0614441 0.420283 0.16921 0.182363C0.399864 -0.0555548 0.779718 -0.0614439 1.01764 0.169213L4.91645 3.94897C5.00326 4.0301 5.07373 4.12814 5.12278 4.238C5.17352 4.35162 5.2 4.47488 5.2 4.6C5.2 4.72511 5.17352 4.84837 5.12278 4.96199C5.07373 5.07185 5.00326 5.16989 4.91645 5.25102L1.01764 9.03079C0.779718 9.2614 0.399864 9.2556 0.169211 9.01763Z" fill="#828282"/>
</svg>
