<svg width="18" height="18" viewBox="0 0 18 18" fill="none" xmlns="http://www.w3.org/2000/svg">
<path d="M8.95874 17.9585C7.73438 17.9585 6.57721 17.7232 5.48723 17.2525C4.39725 16.7819 3.44553 16.1399 2.63208 15.3264C1.81803 14.513 1.17598 13.5612 0.705949 12.4713C0.235914 11.3813 0.000597249 10.2241 0 8.99976C0 7.76046 0.235316 6.59971 0.705949 5.51749C1.17658 4.43528 1.81862 3.48714 2.63208 2.67309C3.44553 1.85904 4.39695 1.217 5.48633 0.746964C6.57572 0.276929 7.73318 0.0416129 8.95874 0.0410156C10.198 0.0410156 11.3591 0.276332 12.4419 0.746964C13.5247 1.2176 14.4725 1.85964 15.2854 2.67309C16.0995 3.48655 16.7415 4.43468 17.2115 5.51749C17.6816 6.60031 17.9169 7.76106 17.9175 8.99976C17.9175 10.2241 17.6822 11.3813 17.2115 12.4713C16.7409 13.5612 16.0989 14.5133 15.2854 15.3273C14.4719 16.1408 13.5238 16.7828 12.441 17.2534C11.3582 17.7241 10.1974 17.9591 8.95874 17.9585ZM8.95874 16.122C9.34695 15.5844 9.68291 15.0245 9.9666 14.4422C10.2503 13.8599 10.4817 13.2402 10.6609 12.5833H7.25658C7.43575 13.2402 7.66719 13.8599 7.95088 14.4422C8.23458 15.0245 8.57053 15.5844 8.95874 16.122ZM6.62947 15.7636C6.36071 15.2709 6.12569 14.7593 5.92441 14.229C5.72314 13.6986 5.55502 13.15 5.42004 12.5833H2.77721C3.21022 13.3298 3.75162 13.9793 4.40143 14.5318C5.05124 15.0842 5.79392 15.4948 6.62947 15.7636ZM11.288 15.7636C12.1242 15.4948 12.8671 15.0842 13.5169 14.5318C14.1668 13.9793 14.7079 13.3298 15.1403 12.5833H12.4974C12.3631 13.1506 12.1952 13.6995 11.994 14.2299C11.7927 14.7602 11.5574 15.2715 11.288 15.7636ZM2.01572 10.7915H5.06169C5.01689 10.4929 4.98345 10.1981 4.96135 9.90728C4.93925 9.61642 4.9279 9.31391 4.92731 8.99976C4.92731 8.6862 4.93865 8.38399 4.96135 8.09313C4.98405 7.80227 5.01749 7.50723 5.06169 7.20801H2.01572C1.94106 7.50663 1.88522 7.80167 1.84819 8.09313C1.81116 8.38459 1.79235 8.6868 1.79175 8.99976C1.79175 9.31331 1.81056 9.61582 1.84819 9.90728C1.88582 10.1987 1.94166 10.4935 2.01572 10.7915ZM6.85344 10.7915H11.064C11.1088 10.4929 11.1426 10.1981 11.1653 9.90728C11.188 9.61642 11.199 9.31391 11.1984 8.99976C11.1984 8.6862 11.1871 8.38399 11.1644 8.09313C11.1417 7.80227 11.1082 7.50723 11.064 7.20801H6.85344C6.80864 7.50663 6.7752 7.80167 6.7531 8.09313C6.731 8.38459 6.71965 8.6868 6.71906 8.99976C6.71906 9.31331 6.7304 9.61582 6.7531 9.90728C6.77579 10.1987 6.80924 10.4935 6.85344 10.7915ZM12.8558 10.7915H15.9018C15.9764 10.4929 16.0326 10.1981 16.0702 9.90728C16.1078 9.61642 16.1263 9.31391 16.1257 8.99976C16.1257 8.6862 16.1072 8.38399 16.0702 8.09313C16.0332 7.80227 15.977 7.50723 15.9018 7.20801H12.8558C12.9006 7.50663 12.9343 7.80167 12.957 8.09313C12.9797 8.38459 12.9908 8.6868 12.9902 8.99976C12.9902 9.31331 12.9788 9.61582 12.9561 9.90728C12.9334 10.1987 12.9 10.4935 12.8558 10.7915ZM12.4974 5.41626H15.1403C14.7073 4.6697 14.1662 4.02019 13.5169 3.46773C12.8677 2.91528 12.1248 2.50467 11.288 2.23591C11.5568 2.72864 11.7921 3.24018 11.994 3.77054C12.1958 4.3009 12.3637 4.84947 12.4974 5.41626ZM7.25658 5.41626H10.6609C10.4817 4.75929 10.2503 4.13964 9.9666 3.55732C9.68291 2.975 9.34695 2.41508 8.95874 1.87756C8.57053 2.41508 8.23458 2.975 7.95088 3.55732C7.66719 4.13964 7.43575 4.75929 7.25658 5.41626ZM2.77721 5.41626H5.42004C5.55442 4.84887 5.72254 4.3 5.92441 3.76964C6.12629 3.23929 6.3613 2.72804 6.62947 2.23591C5.79332 2.50467 5.05034 2.91528 4.40053 3.46773C3.75073 4.02019 3.20962 4.6697 2.77721 5.41626Z" fill="#E5B532"/>
</svg>
