<svg width="28" height="28" viewBox="0 0 28 28" fill="none" xmlns="http://www.w3.org/2000/svg">
<g clip-path="url(#clip0_2010_87)">
<path d="M27.1859 27.9998H0.87447C0.38336 27.7845 0.0537109 27.4549 0.0537109 26.8763C0.0537109 18.3054 0.0537109 9.73453 0.0537109 1.16365C0.0537109 0.511075 0.517911 0.046875 1.17048 0.046875C9.74136 0.046875 18.3122 0.046875 26.8764 0.046875C27.3877 0.046875 27.7308 0.289066 27.9393 0.753266C27.9595 0.793631 27.9797 0.827269 27.9999 0.867634V27.1858C27.8452 27.5759 27.5693 27.8518 27.1791 28.0065L27.1859 27.9998ZM2.24689 10.8446V17.2021H17.1955V10.8446H2.24689ZM25.8134 2.24678H10.8514V8.61103H25.8134V2.24678ZM25.8134 19.4424H10.8514V25.8066H25.8134V19.4424ZM19.4425 17.2021H25.8067V10.8513H19.4425V17.2021ZM8.61786 2.24678H2.25361V8.61103H8.61786V2.24678ZM2.24689 25.7999H8.61114V19.4424H2.24689V25.7999Z" fill="#E5B532"/>
</g>
<defs>
<clipPath id="clip0_2010_87">
<rect width="28" height="28" fill="white"/>
</clipPath>
</defs>
</svg>
