<svg width="28" height="28" viewBox="0 0 28 28" fill="none" xmlns="http://www.w3.org/2000/svg">
<g clip-path="url(#clip0_2010_97)">
<path d="M25.0062 27.9998H3.00045C2.49588 27.7778 2.17969 27.4414 2.17969 26.8494C2.17969 18.2987 2.17969 9.74798 2.17969 1.19728C2.17969 0.504347 2.63043 0.046875 3.31664 0.046875C10.4478 0.046875 17.5857 0.046875 24.7169 0.046875C24.8313 0.046875 24.9524 0.0603301 25.0668 0.0939677C25.6117 0.255429 25.8539 0.659081 25.8539 1.3722C25.8539 9.79507 25.8539 18.2179 25.8606 26.6408C25.8606 27.3001 25.6386 27.7643 25.0062 27.9998ZM12.8967 2.25351H4.38632V12.9234H12.8967V2.25351ZM12.8967 15.1367H4.38632V25.8066H12.8967V15.1367ZM15.1369 2.24005V12.9167H23.6271V2.24005H15.1369ZM23.6338 15.1367H15.1369V25.7999H23.6338V15.1367Z" fill="#E5B532"/>
</g>
<defs>
<clipPath id="clip0_2010_97">
<rect width="28" height="28" fill="white"/>
</clipPath>
</defs>
</svg>
